<?xml version="1.0" encoding="UTF-8"?>
<svg id="logo" width="350" height="150" version="1.1" viewBox="0 0 197680 14580" xmlns="http://www.w3.org/2000/svg" xmlns:cc="http://creativecommons.org/ns#" xmlns:dc="http://purl.org/dc/elements/1.1/" xmlns:rdf="http://www.w3.org/1999/02/22-rdf-syntax-ns#">
 <metadata>
  <rdf:RDF>
   <cc:Work rdf:about="">
    <dc:format>image/svg+xml</dc:format>
    <dc:type rdf:resource="http://purl.org/dc/dcmitype/StillImage"/>
    <dc:title/>
   </cc:Work>
  </rdf:RDF>
 </metadata>
 <g transform="translate(0 -59956)" fill="#2b7f68" stroke-width="350">
  <path d="m8225 67242c4935 0 8225 3535 8225 8505 0 4935-3290 8505-8225 8505s-8225-3535-8225-8505c0-4935 3290-8505 8225-8505zm0 12950c1260 0 3220-840 3220-4445s-1960-4445-3220-4445-3220 840-3220 4445 1960 4445 3220 4445zm10360-12565h5110l4725 8680h35v-8680h4725v16205h-4865l-4970-8820h-35v8855h-4725zm17220 0h13440v4165h-8435v2030h7665v3850h-7665v2030h8680v4165h-13685zm28070 0h4900l5915 16205h-5180l-665-2310h-5145l-735 2310h-5005zm3920 10430-1470-5005h-35l-1575 5005zm18200-4375c-105-595-560-2380-2625-2380-2345 0-3080 2275-3080 4445s735 4445 3080 4445c1680 0 2345-1190 2625-2695h4900c0 3255-2660 6755-7420 6755-5250 0-8225-3710-8225-8505 0-5110 3220-8505 8225-8505 4445 35 6895 2345 7350 6440zm7e3 -6055h9520c2835 0 5285 1575 5285 4620 0 1680-770 3465-2415 4060 1365 525 2205 2030 2380 4060 70 805 105 2730 560 3465h-5005c-245-805-350-1645-420-2485-140-1540-280-3150-2240-3150h-2660v5670h-5005zm5005 7105h2625c945 0 2205-175 2205-1610 0-1015-560-1610-2485-1610h-2345zm11830-7105h13440v4165h-8435v2030h7665v3850h-7665v2030h8680v4165h-13685zm23590 0h12530v4165h-7525v2030h6475v3850h-6475v6195h-5005zm29015 9975c0 4480-2415 6650-7385 6650s-7420-2170-7420-6650v-9975h5005v8820c0 1645 0 3710 2415 3710 2345 0 2345-2065 2345-3710v-8820h5005v9975zm2555-9975h5110l4725 8680h35v-8680h4725v16205h-4865l-4970-8855h-35v8855h-4725zm17185 0h8190c5390 0 7315 3990 7315 8085 0 4970-2625 8120-8295 8120h-7210zm5005 12075h1960c3115 0 3570-2520 3570-4060 0-1015-315-3850-3920-3850h-1575z"/>
  <path d="m1.5463e5 69307c-280-280-140-1820-35-2240 245-1470 630-3780 140-5355-70-525-350-910-665-1295-2625 700-5040-490-6685-1960-2065-1435-4515-3290-5460-3570-1680-385-2765-630-2765-630 2205-3815 5390-4375 9415-3850 5530 910 6790 3395 6965 6160 70 665-175 2170-980 3325 945 1260 1260 2555 1050 4655 700-980 840-1190 1260-1435-630-4060 945-8575 9870-8855 6755 455 9030 4620 9625 6720-1890-140-3745 0-7070 1750-4130 2590-8085 3080-12110 945-1820 1330-1540 5670-1540 5915-630 315-1015-280-1015-280z"/>
 </g>
</svg>
